 0 
SECTION
 2 
HEADER
 9 
$ACADVER
 1 
AC1004
 9 
$EXTMIN
 10 
0.0
 20 
0.0
 9 
$EXTMAX
 10 
2.725
 20 
2.125
 9 
$LIMMIN
 10 
0.0
 20 
0.0
 9 
$LIMMAX
 10 
2.725
 20 
2.125
 9 
$INSBASE
 10 
0.0
 20 
0.0
 9 
$VIEWCTR
 10 
1.362
 20 
1.062
 9 
$VIEWSIZE
 40 
2.125
 9 
$ORTHOMODE
 70 
 0 
 9 
$REGENMODE
 70 
 1 
 9 
$FILLMODE
 70 
 1 
 9 
$QTEXTMODE
 70 
 0 
 9 
$DRAGMODE
 70 
 2 
 9 
$LTSCALE
 40 
1.0
 9 
$OSMODE
 70 
 0 
 9 
$ATTMODE
 70 
 1 
 9 
$TEXTSIZE
 40 
0.2
 9 
$TRACEWID
 40 
0.05
 9 
$TEXTSTYLE
 7 
STANDARD
 9 
$CLAYER
 8 
0
 9 
$CELTYPE
 6 
BYLAYER
 9 
$CECOLOR
 62 
 256 
 9 
$DIMSCALE
 40 
1.0
 9 
$DIMLFAC
 40 
1.0
 9 
$LUNITS
 70 
 2 
 9 
$LUPREC
 70 
 4 
 9 
$AXISMODE
 70 
 0 
 9 
$AXISUNIT
 10 
0.0
 20 
0.0
 9 
$SKETCHINC
 40 
0.1
 9 
$MENU
 1 
acad
 9 
$ELEVATION
 40 
0.0
 9 
$THICKNESS
 40 
0.0
 9 
$VIEWDIR
 10 
0.0
 20 
0.0
 30 
1.0
 9 
$LIMCHECK
 70 
 0 
 9 
$BLIPMODE
 70 
 1 
 9 
$FASTZOOM
 70 
 1 
 9 
$SKPOLY
 70 
 0 
 9 
$ANGBASE
 50 
0.0
 9 
$ANGDIR
 70 
 0 
 9 
$PDMODE
 70 
 0 
 9 
$PDSIZE
 40 
0.0
 9 
$PLINEWID
 40 
0.0
 9 
$COORDS
 70 
 0 
 9 
$ATTDIA
 70 
 0 
 9 
$ATTREQ
 70 
 1 
 0 
ENDSEC
 0 
SECTION
 2 
TABLES
 0 
TABLE
 2 
LTYPE
 70 
 10 
 0 
LTYPE
 2 
CONTINUOUS
 70 
 64 
 3 
Solid line
 72 
 65 
 73 
 0 
 40 
0.0
 0 
ENDTAB
 0 
TABLE
 2 
LAYER
 70 
 153 
 0 
LAYER
 2 
0
 70 
 64 
 62 
 7 
 6 
CONTINUOUS
 0 
ENDTAB
 0 
ENDSEC
 0 
SECTION
 2 
BLOCKS
 0 
ENDSEC
 0 
SECTION
 2 
ENTITIES
 0 
LINE
 8 
0
 62 
 7 
 10 
0.0
 20 
2.125
 11 
2.6
 21 
2.125
 0 
LINE
 8 
0
 62 
 7 
 10 
2.6
 20 
2.125
 11 
2.6
 21 
1.7
 0 
LINE
 8 
0
 62 
 7 
 10 
2.6
 20 
0.0
 11 
0.0
 21 
0.0
 0 
LINE
 8 
0
 62 
 7 
 10 
0.0
 20 
0.0
 11 
0.0
 21 
2.125
 0 
LINE
 8 
0
 62 
 7 
 10 
2.6
 20 
0.075
 11 
2.6
 21 
0.0
 0 
LINE
 8 
0
 62 
 7 
 10 
2.725
 20 
0.225
 11 
2.6
 21 
0.075
 0 
LINE
 8 
0
 62 
 7 
 10 
2.6
 20 
1.7
 11 
2.725
 21 
1.525
 0 
LINE
 8 
0
 62 
 7 
 10 
2.725
 20 
1.525
 11 
2.725
 21 
0.225
 0 
CIRCLE
 8 
0
 62 
 7 
 10 
0.075
 20 
2.025
 40 
0.02
 0 
CIRCLE
 8 
0
 62 
 7 
 10 
0.331
 20 
2.025
 40 
0.02
 0 
CIRCLE
 8 
0
 62 
 7 
 10 
0.075
 20 
1.848
 40 
0.02
 0 
CIRCLE
 8 
0
 62 
 7 
 10 
0.331
 20 
1.848
 40 
0.02
 0 
CIRCLE
 8 
0
 62 
 7 
 10 
2.275
 20 
1.025
 40 
0.02
 0 
CIRCLE
 8 
0
 62 
 7 
 10 
2.275
 20 
0.925
 40 
0.02
 0 
CIRCLE
 8 
0
 62 
 7 
 10 
2.275
 20 
0.55
 40 
0.02
 0 
CIRCLE
 8 
0
 62 
 7 
 10 
2.275
 20 
0.45
 40 
0.02
 0 
CIRCLE
 8 
0
 62 
 7 
 10 
2.275
 20 
1.5
 40 
0.02
 0 
CIRCLE
 8 
0
 62 
 7 
 10 
2.275
 20 
1.4
 40 
0.02
 0 
CIRCLE
 8 
0
 62 
 7 
 10 
2.275
 20 
1.3
 40 
0.02
 0 
CIRCLE
 8 
0
 62 
 7 
 10 
2.275
 20 
0.825
 40 
0.02
 0 
CIRCLE
 8 
0
 62 
 7 
 10 
1.64
 20 
2.01
 40 
0.02
 0 
CIRCLE
 8 
0
 62 
 7 
 10 
1.54
 20 
2.01
 40 
0.02
 0 
CIRCLE
 8 
0
 62 
 7 
 10 
1.44
 20 
2.01
 40 
0.02
 0 
CIRCLE
 8 
0
 62 
 7 
 10 
1.34
 20 
2.01
 40 
0.02
 0 
CIRCLE
 8 
0
 62 
 7 
 10 
1.24
 20 
2.01
 40 
0.02
 0 
CIRCLE
 8 
0
 62 
 7 
 10 
1.14
 20 
2.01
 40 
0.02
 0 
CIRCLE
 8 
0
 62 
 7 
 10 
1.04
 20 
2.01
 40 
0.02
 0 
CIRCLE
 8 
0
 62 
 7 
 10 
0.94
 20 
2.01
 40 
0.02
 0 
CIRCLE
 8 
0
 62 
 7 
 10 
2.5
 20 
2.01
 40 
0.02
 0 
CIRCLE
 8 
0
 62 
 7 
 10 
2.4
 20 
2.01
 40 
0.02
 0 
CIRCLE
 8 
0
 62 
 7 
 10 
2.3
 20 
2.01
 40 
0.02
 0 
CIRCLE
 8 
0
 62 
 7 
 10 
2.2
 20 
2.01
 40 
0.02
 0 
CIRCLE
 8 
0
 62 
 7 
 10 
2.1
 20 
2.01
 40 
0.02
 0 
CIRCLE
 8 
0
 62 
 7 
 10 
2.0
 20 
2.01
 40 
0.02
 0 
CIRCLE
 8 
0
 62 
 7 
 10 
1.9
 20 
2.01
 40 
0.02
 0 
CIRCLE
 8 
0
 62 
 7 
 10 
1.8
 20 
2.01
 40 
0.02
 0 
CIRCLE
 8 
0
 62 
 7 
 10 
2.275
 20 
0.35
 40 
0.02
 0 
CIRCLE
 8 
0
 62 
 7 
 10 
2.55
 20 
1.725
 40 
0.014
 0 
CIRCLE
 8 
0
 62 
 7 
 10 
2.2
 20 
1.725
 40 
0.014
 0 
CIRCLE
 8 
0
 62 
 7 
 10 
1.8
 20 
0.11
 40 
0.02
 0 
CIRCLE
 8 
0
 62 
 7 
 10 
1.7
 20 
0.11
 40 
0.02
 0 
CIRCLE
 8 
0
 62 
 7 
 10 
1.6
 20 
0.11
 40 
0.02
 0 
CIRCLE
 8 
0
 62 
 7 
 10 
1.5
 20 
0.11
 40 
0.02
 0 
CIRCLE
 8 
0
 62 
 7 
 10 
1.4
 20 
0.11
 40 
0.02
 0 
CIRCLE
 8 
0
 62 
 7 
 10 
1.3
 20 
0.11
 40 
0.02
 0 
CIRCLE
 8 
0
 62 
 7 
 10 
2.5
 20 
0.11
 40 
0.02
 0 
CIRCLE
 8 
0
 62 
 7 
 10 
2.4
 20 
0.11
 40 
0.02
 0 
CIRCLE
 8 
0
 62 
 7 
 10 
2.3
 20 
0.11
 40 
0.02
 0 
CIRCLE
 8 
0
 62 
 7 
 10 
2.2
 20 
0.11
 40 
0.02
 0 
CIRCLE
 8 
0
 62 
 7 
 10 
2.1
 20 
0.11
 40 
0.02
 0 
CIRCLE
 8 
0
 62 
 7 
 10 
2.0
 20 
0.11
 40 
0.02
 0 
CIRCLE
 8 
0
 62 
 7 
 10 
1.025
 20 
1.325
 40 
0.02
 0 
CIRCLE
 8 
0
 62 
 7 
 10 
1.125
 20 
1.325
 40 
0.02
 0 
CIRCLE
 8 
0
 62 
 7 
 10 
1.225
 20 
1.325
 40 
0.02
 0 
CIRCLE
 8 
0
 62 
 7 
 10 
2.6
 20 
0.31
 40 
0.062
 0 
CIRCLE
 8 
0
 62 
 7 
 10 
2.6
 20 
1.435
 40 
0.062
 0 
CIRCLE
 8 
0
 62 
 7 
 10 
0.54
 20 
0.11
 40 
0.062
 0 
CIRCLE
 8 
0
 62 
 7 
 10 
0.6
 20 
2.01
 40 
0.062
 0 
CIRCLE
 8 
0
 62 
 7 
 10 
1.325
 20 
1.325
 40 
0.02
 0 
CIRCLE
 8 
0
 62 
 7 
 10 
0.8
 20 
1.05
 40 
0.014
 0 
CIRCLE
 8 
0
 62 
 7 
 10 
0.9
 20 
1.05
 40 
0.014
 0 
CIRCLE
 8 
0
 62 
 7 
 10 
1.0
 20 
1.05
 40 
0.014
 0 
CIRCLE
 8 
0
 62 
 7 
 10 
1.1
 20 
1.05
 40 
0.014
 0 
CIRCLE
 8 
0
 62 
 7 
 10 
1.2
 20 
1.05
 40 
0.014
 0 
CIRCLE
 8 
0
 62 
 7 
 10 
1.3
 20 
1.05
 40 
0.014
 0 
CIRCLE
 8 
0
 62 
 7 
 10 
1.4
 20 
1.05
 40 
0.014
 0 
CIRCLE
 8 
0
 62 
 7 
 10 
1.5
 20 
1.05
 40 
0.014
 0 
CIRCLE
 8 
0
 62 
 7 
 10 
1.275
 20 
0.5
 40 
0.014
 0 
CIRCLE
 8 
0
 62 
 7 
 10 
1.375
 20 
0.5
 40 
0.014
 0 
CIRCLE
 8 
0
 62 
 7 
 10 
1.475
 20 
0.5
 40 
0.014
 0 
CIRCLE
 8 
0
 62 
 7 
 10 
1.575
 20 
0.5
 40 
0.014
 0 
CIRCLE
 8 
0
 62 
 7 
 10 
1.675
 20 
0.5
 40 
0.014
 0 
CIRCLE
 8 
0
 62 
 7 
 10 
1.775
 20 
0.5
 40 
0.014
 0 
CIRCLE
 8 
0
 62 
 7 
 10 
1.875
 20 
0.5
 40 
0.014
 0 
CIRCLE
 8 
0
 62 
 7 
 10 
1.975
 20 
0.5
 40 
0.014
 0 
CIRCLE
 8 
0
 62 
 7 
 10 
0.425
 20 
0.5
 40 
0.014
 0 
CIRCLE
 8 
0
 62 
 7 
 10 
0.525
 20 
0.5
 40 
0.014
 0 
CIRCLE
 8 
0
 62 
 7 
 10 
0.625
 20 
0.5
 40 
0.014
 0 
CIRCLE
 8 
0
 62 
 7 
 10 
0.725
 20 
0.5
 40 
0.014
 0 
CIRCLE
 8 
0
 62 
 7 
 10 
0.825
 20 
0.5
 40 
0.014
 0 
CIRCLE
 8 
0
 62 
 7 
 10 
0.925
 20 
0.5
 40 
0.014
 0 
CIRCLE
 8 
0
 62 
 7 
 10 
1.025
 20 
0.5
 40 
0.014
 0 
CIRCLE
 8 
0
 62 
 7 
 10 
1.125
 20 
0.5
 40 
0.014
 0 
CIRCLE
 8 
0
 62 
 7 
 10 
0.375
 20 
0.9
 40 
0.014
 0 
CIRCLE
 8 
0
 62 
 7 
 10 
0.375
 20 
0.825
 40 
0.014
 0 
CIRCLE
 8 
0
 62 
 7 
 10 
0.375
 20 
0.75
 40 
0.014
 0 
CIRCLE
 8 
0
 62 
 7 
 10 
0.375
 20 
0.675
 40 
0.014
 0 
CIRCLE
 8 
0
 62 
 7 
 10 
0.65
 20 
0.9
 40 
0.014
 0 
CIRCLE
 8 
0
 62 
 7 
 10 
0.65
 20 
0.825
 40 
0.014
 0 
CIRCLE
 8 
0
 62 
 7 
 10 
0.65
 20 
0.75
 40 
0.014
 0 
CIRCLE
 8 
0
 62 
 7 
 10 
0.65
 20 
0.675
 40 
0.014
 0 
CIRCLE
 8 
0
 62 
 7 
 10 
0.925
 20 
0.9
 40 
0.014
 0 
CIRCLE
 8 
0
 62 
 7 
 10 
0.925
 20 
0.825
 40 
0.014
 0 
CIRCLE
 8 
0
 62 
 7 
 10 
0.925
 20 
0.75
 40 
0.014
 0 
CIRCLE
 8 
0
 62 
 7 
 10 
0.925
 20 
0.675
 40 
0.014
 0 
CIRCLE
 8 
0
 62 
 7 
 10 
1.2
 20 
0.9
 40 
0.014
 0 
CIRCLE
 8 
0
 62 
 7 
 10 
1.2
 20 
0.825
 40 
0.014
 0 
CIRCLE
 8 
0
 62 
 7 
 10 
1.2
 20 
0.75
 40 
0.014
 0 
CIRCLE
 8 
0
 62 
 7 
 10 
1.2
 20 
0.675
 40 
0.014
 0 
CIRCLE
 8 
0
 62 
 7 
 10 
1.475
 20 
0.9
 40 
0.014
 0 
CIRCLE
 8 
0
 62 
 7 
 10 
1.475
 20 
0.825
 40 
0.014
 0 
CIRCLE
 8 
0
 62 
 7 
 10 
1.475
 20 
0.75
 40 
0.014
 0 
CIRCLE
 8 
0
 62 
 7 
 10 
1.475
 20 
0.675
 40 
0.014
 0 
CIRCLE
 8 
0
 62 
 7 
 10 
1.75
 20 
0.9
 40 
0.014
 0 
CIRCLE
 8 
0
 62 
 7 
 10 
1.75
 20 
0.825
 40 
0.014
 0 
CIRCLE
 8 
0
 62 
 7 
 10 
1.75
 20 
0.75
 40 
0.014
 0 
CIRCLE
 8 
0
 62 
 7 
 10 
1.75
 20 
0.675
 40 
0.014
 0 
CIRCLE
 8 
0
 62 
 7 
 10 
2.0
 20 
0.9
 40 
0.014
 0 
CIRCLE
 8 
0
 62 
 7 
 10 
2.0
 20 
0.825
 40 
0.014
 0 
CIRCLE
 8 
0
 62 
 7 
 10 
2.0
 20 
0.75
 40 
0.014
 0 
CIRCLE
 8 
0
 62 
 7 
 10 
2.0
 20 
0.675
 40 
0.014
 0 
CIRCLE
 8 
0
 62 
 7 
 10 
2.625
 20 
0.475
 40 
0.014
 0 
CIRCLE
 8 
0
 62 
 7 
 10 
2.625
 20 
0.825
 40 
0.014
 0 
CIRCLE
 8 
0
 62 
 7 
 10 
2.5
 20 
0.825
 40 
0.014
 0 
CIRCLE
 8 
0
 62 
 7 
 10 
2.5
 20 
0.475
 40 
0.014
 0 
CIRCLE
 8 
0
 62 
 7 
 10 
2.625
 20 
0.925
 40 
0.014
 0 
CIRCLE
 8 
0
 62 
 7 
 10 
2.625
 20 
1.275
 40 
0.014
 0 
CIRCLE
 8 
0
 62 
 7 
 10 
2.5
 20 
1.275
 40 
0.014
 0 
CIRCLE
 8 
0
 62 
 7 
 10 
2.5
 20 
0.925
 40 
0.014
 0 
CIRCLE
 8 
0
 62 
 7 
 10 
2.2
 20 
1.85
 40 
0.014
 0 
CIRCLE
 8 
0
 62 
 7 
 10 
2.55
 20 
1.85
 40 
0.014
 0 
CIRCLE
 8 
0
 62 
 7 
 10 
1.9
 20 
1.7
 40 
0.014
 0 
CIRCLE
 8 
0
 62 
 7 
 10 
1.8
 20 
1.7
 40 
0.014
 0 
CIRCLE
 8 
0
 62 
 7 
 10 
1.7
 20 
1.55
 40 
0.014
 0 
CIRCLE
 8 
0
 62 
 7 
 10 
1.7
 20 
1.45
 40 
0.014
 0 
CIRCLE
 8 
0
 62 
 7 
 10 
1.7
 20 
1.35
 40 
0.014
 0 
CIRCLE
 8 
0
 62 
 7 
 10 
1.7
 20 
1.25
 40 
0.014
 0 
CIRCLE
 8 
0
 62 
 7 
 10 
2.0
 20 
1.25
 40 
0.014
 0 
CIRCLE
 8 
0
 62 
 7 
 10 
2.0
 20 
1.35
 40 
0.014
 0 
CIRCLE
 8 
0
 62 
 7 
 10 
2.0
 20 
1.45
 40 
0.014
 0 
CIRCLE
 8 
0
 62 
 7 
 10 
2.0
 20 
1.55
 40 
0.014
 0 
CIRCLE
 8 
0
 62 
 7 
 10 
0.55
 20 
1.75
 40 
0.04
 0 
CIRCLE
 8 
0
 62 
 7 
 10 
0.55
 20 
1.23
 40 
0.04
 0 
CIRCLE
 8 
0
 62 
 7 
 10 
1.6
 20 
1.7
 40 
0.014
 0 
CIRCLE
 8 
0
 62 
 7 
 10 
1.5
 20 
1.7
 40 
0.014
 0 
ENDSEC
 0 
EOF
